Patient4_TMGait_0pt4_03_right_41_EMG.mot
version=1
nRows=23
nColumns=33
inDegrees=no
endheader
time	1LAddLong	2LGlutMax	3LGlutMed	4LIliopsoas	5LSemiMemb	6LBicFemLong	7LRecFem	8LVastMed	9LVastLat	10LGasMed	11LTibAnt	12lTibPost	13LPeroneusLong	14LSol	15LExtDigLong	16LFlexDigLong	17RAddLong	18RGlutMax	19RGlutMed	20RIliopsoas	21RSemiMemb	22RBicFemLong	23RRecFem	24RVastMed	25RVastLat	26RGasMed	27RTibAnt	28RTibPost	29RPeroneusLong	30RSol	31RExtDigLong	32RFlexDigLong
54.125	0.010071	-0.067444	0.1416	0.069885	0.00824	-0.057983	-0.10742	-0.006866	-0.007935	0.063782	0.000305	0.003967	-0.046082	0.097046	-0.02594	0.21942	0.007477	-0.57297	0.62576	-0.028534	0.43015	0.16785	0.5423	0.13351	-0.54001	0.098724	-0.16342	-0.019684	0.96268	-0.015411	-0.000153	-0.018158
54.126	-0.005493	-0.045929	0.14816	0.074158	0.010529	-0.082245	-0.098877	-0.007172	-0.001526	0.060883	-0.001526	-0.000916	-0.005341	-0.097046	-0.016479	0.1857	-0.055695	-0.54047	0.15778	-0.033569	0.58212	0.079041	0.47775	0.21942	-0.457	0.050812	-0.17654	-0.016022	-0.73822	0.19272	0.002747	-0.015869
54.127	0.007629	-0.06073	0.20996	0.023956	0.020752	-0.084381	-0.071411	-0.006104	0.001678	0.065155	-0.003967	0.003815	0.018158	-0.15595	0.006409	0.052948	-0.077057	-0.71274	-0.20721	-0.049744	0.25574	-0.13031	0.41138	0.11627	-0.29892	0.028076	0.029907	-0.013428	-0.67322	0.31067	-0.001373	-0.019226
54.128	-0.00351	-0.044708	0.20767	-0.006561	0.017395	-0.038147	-0.014038	-0.002899	0.009766	0.035553	-0.007629	0.004425	0.004578	-0.16022	0.028381	-0.073853	-0.071411	-0.7663	-0.61401	-0.065308	0.10696	-0.21225	0.35202	-0.028839	-0.24262	0.035858	0.02182	-0.016174	0.79651	0.33814	-0.005341	-0.013123
54.129	0.000458	-0.009308	0.20432	-0.027313	0.016479	-0.049591	0.007324	-0.001068	0.009003	0.016479	-0.012512	0.009613	0.011749	-0.29526	0.038147	-0.077667	-0.06897	-0.8818	-0.90546	-0.039978	-0.061646	-0.06424	0.22842	-0.06424	-0.18646	0.024109	0.074768	-0.00824	0.95947	0.12131	-0.000153	-0.011444
54.13	-0.005035	-0.012817	0.19852	-0.031128	0.023956	-0.04837	0.030518	-0.003662	0.018921	-0.015259	-0.005951	0.012054	-0.015869	-0.29907	0.026398	-0.054626	-0.016479	-1.0834	-0.77026	-0.039673	-0.16586	0.006866	0.20432	0.01236	-0.14313	0.017548	0.071106	-0.009155	-1.1168	-0.022278	-0.003967	-0.016174
54.131	-0.004578	-0.044708	0.19669	-0.019684	0.018921	-0.038757	0.036469	-0.004883	0.02182	-0.016785	0.002899	0.013123	-0.02121	-0.18524	0.018158	-0.057068	-0.020447	-1.3141	-0.80444	-0.095673	-0.18982	0.093536	0.15884	0.12466	-0.099792	0.019684	0.088806	-0.01236	-0.88913	-0.16083	-0.004425	-0.007324
54.132	-0.000458	-0.045929	0.19898	0.007019	0.013885	-0.039215	0.069427	-0.001068	0.037079	-0.039368	0.017242	0.023956	-0.031281	-0.1268	0.007477	-0.069885	-0.030823	-1.4668	-0.23544	-0.18402	-0.077972	0.08316	0.11887	0.017853	-0.080566	0.00412	0.12177	-0.009308	-0.35355	-0.17181	0	-0.014954
54.133	-0.001526	-0.035248	0.21759	0.00885	0.01709	-0.04837	0.048828	-0.000458	0.056	-0.038452	0.022125	0.01358	-0.047913	-0.019989	0.018616	-0.069427	0.029907	-1.3905	-0.00946	-0.1149	-0.3894	-0.11032	0.067444	-0.06546	-0.075073	-0.002899	0.021973	-0.019531	2.2151	-0.11139	0.001221	-0.018616
54.134	0.000763	-0.014954	0.24262	0.000763	0.00946	-0.06012	-0.009308	0.001221	0.068359	-0.048981	0.015564	0.010376	-0.030365	0.19363	0.02243	-0.055084	0.067749	-1.2564	-0.33371	-0.085144	-0.28046	-0.27329	0.1474	-0.019531	-0.072327	-0.041656	-0.095062	-0.025635	1.0445	-0.18127	-0.003204	-0.005188
54.135	-0.004578	-0.002289	0.17777	0.007935	0.010376	-0.046082	-0.048981	0.001068	0.079193	-0.052795	-0.004272	0.008698	-0.035095	0.26321	-0.006409	-0.029144	0.051422	-1.0477	-0.58929	0.15274	0.007782	-0.31891	0.27359	0.015106	-0.097656	-0.007172	-0.13534	-0.030975	0.31082	-0.010986	0	-0.009918
54.136	-0.008545	0.00885	0.15503	0.00061	0.014191	-0.047302	-0.037231	0.006866	0.099182	-0.043945	-0.016174	0.005646	-0.019226	0.22995	-0.01236	-0.033264	-0.012817	-0.8818	0.18173	0.15076	0.23895	-0.29251	0.21805	0.011292	-0.082245	-0.050354	-0.063782	-0.034332	0.065155	-0.079651	-0.000305	-0.009613
54.137	0.001984	0.045319	0.098419	-0.004883	0.011597	-0.024414	-0.012512	0.005188	0.095215	-0.018005	-0.013275	0.003357	-0.041351	0.17899	-0.006714	-0.02594	-0.071411	-0.8342	0.45975	0.026855	-0.33966	0.007935	0.22049	0.00946	-0.078735	-0.055847	-0.028687	-0.041656	-1.1099	-0.20355	-0.003662	0.002899
54.138	0.006256	0.050201	0.071259	0.01236	0.011597	-0.038147	-0.054932	-0.00473	0.10864	-0.011139	-0.016022	0.006866	-0.057678	0.17502	-0.012512	-0.033722	-0.10956	-0.72174	0.36362	-0.095673	-0.17303	0.21912	0.046539	0.082092	-0.064545	0.02243	-0.12253	-0.017548	0.59082	0.057678	-0.007172	0.004578
54.139	0.004578	0.028229	0.015106	0.037842	0.002289	-0.02594	-0.16754	-0.002594	0.12207	-0.03006	-0.002747	0.002289	-0.056	0.15686	-0.009766	-0.015564	-0.10681	-0.64819	-0.11093	0.032806	0.36026	0.19165	0.029602	0.097046	-0.075684	0.054321	-0.17059	0.078583	0.20874	0.1239	0.001526	-0.005951
54.14	0.002899	0.050964	-0.008087	0.023651	0.009003	-0.034027	-0.12497	-0.007782	0.12436	-0.035248	0.001526	0.001221	-0.051575	0.17105	-0.025177	-0.019836	-0.090942	-0.53467	-0.39047	0.14328	0.5719	0.076141	0.11093	0.019836	-0.10544	0.036926	-0.077972	-0.028076	-0.1918	0.21011	-0.002136	-0.017395
54.141	0.001678	0.060272	-0.024567	0.007172	0.010834	-0.037842	-0.010376	-0.000916	0.12528	-0.039215	-0.001831	-0.000458	-0.029907	0.1535	0.012054	-0.007172	-0.087585	-0.38788	0.45487	0.11856	0.20813	0.057678	0.14938	0.03006	-0.1416	0.009003	0.10086	0.04364	-0.095825	0.25833	-0.005798	-0.021515
54.142	0.006104	0.036011	-0.052948	-0.014191	0.010986	-0.033875	0.063171	0.003815	0.12329	-0.087433	-0.009155	0.009613	-0.00946	0.14297	0.031281	-0.006256	-0.082245	-0.44815	0.66009	0.088196	0.075836	0.012207	0.16647	0.014191	-0.12085	-0.039825	0.10773	0	-0.88959	0.36423	-0.003662	-0.013885
54.143	0.005493	0.041351	-0.097809	-0.032043	0.011139	-0.042267	0.088196	0.006561	0.12955	-0.0354	-0.005035	0.003815	-0.027466	0.16678	0.000916	-0.010529	-0.062256	-0.40451	0.41809	-0.037994	0.15732	0.036926	0.10635	-0.049896	-0.16541	0.042419	0.034943	-0.016632	-0.89157	0.47119	-0.003052	-0.011902
54.144	-0.002136	0.046844	-0.13794	-0.022125	0.01358	-0.009766	0.10696	0.004272	0.13489	-0.034027	0.010529	0.001678	-0.023193	0.14923	-0.032349	-0.001678	-0.023804	-0.27908	0.77789	-0.12695	0.20584	0.29755	-0.14999	0.050201	-0.13519	0.090332	-0.043182	-0.022125	0.22736	0.2478	-0.002899	-0.016632
54.145	-0.004425	0.047607	-0.17242	-0.007782	0.006409	-0.026245	0.21576	0.006866	0.12039	-0.027008	0.004425	0.011444	-0.027771	0.1561	-0.044098	-0.006256	-0.011902	-0.23651	0.13657	-0.11154	0.23499	0.39032	-0.42618	-0.008698	-0.11276	0.053864	0.087585	0.068817	-0.67062	-0.043335	-0.005493	-0.01236
54.146	-0.017853	0.049133	-0.21057	0.00351	0.004425	-0.028687	0.27908	-0.001373	0.12543	-0.05249	0.005341	0.002136	-0.021515	0.1532	-0.031128	0.005035	-0.009155	-0.23331	-0.34195	-0.048218	0.10925	0.1918	-0.35538	0.10864	-0.05127	0.042877	0.098877	-0.007324	-0.68253	-0.14893	-0.001984	0.002289
54.147	-0.00061	0.06485	-0.24139	0.00885	0.011749	-0.019531	0.27237	0.003662	0.15411	-0.069122	0.002136	0.005035	0.000153	0.18326	-0.007477	-0.003357	-0.003662	-0.17151	-0.1564	0.038605	-0.099945	-0.26138	-0.16281	0.12924	0.011597	0.04303	0.058899	-0.007935	-0.22385	-0.20447	-0.001068	0.003204
